Coordinates
version=1
nRows=23
nColumns=23
inDegrees=yes

Units are S.I. units (second, meters, Newtons, ...)
If the header above contains a line with 'inDegrees', this indicates whether rotational values are in degrees (yes) or radians (no).

endheader
time	pelvis_tilt	pelvis_list	pelvis_rotation	pelvis_tx	pelvis_ty	pelvis_tz	hip_flexion_r	hip_adduction_r	hip_rotation_r	knee_angle_r	knee_angle_r_beta	ankle_angle_r	subtalar_angle_r	mtp_angle_r	hip_flexion_l	hip_adduction_l	hip_rotation_l	knee_angle_l	knee_angle_l_beta	ankle_angle_l	subtalar_angle_l	mtp_angle_l
      0.00000000	     -8.56362246	      2.16944125	      1.27098851	      2.21656241	      1.03417260	      1.01500827	     -0.31490881	     -2.28828201	    -10.98258808	     28.27497913	      0.49349148	     10.59539025	      3.72522775	      0.00000000	     35.62847419	     -1.04266475	     -4.39787705	     81.03375615	      1.41430585	      4.60553060	     -9.89805800	      0.00000000
      0.00666667	     -9.05041000	      2.49676778	      1.84350312	      2.21819203	      1.03801275	      1.01430153	     -1.99539342	     -2.57863725	    -11.36448934	     26.64136172	      0.46497948	      6.24917064	      3.65690495	      0.00000000	     37.20171445	     -0.29114410	     -4.81858851	     77.93232872	      1.36017573	      4.79192715	    -10.28661233	      0.00000000
      0.01333333	     -9.53104276	      2.87315545	      2.31573024	      2.21993022	      1.04172523	      1.01373087	     -3.73566648	     -2.77286501	    -11.23599673	     24.80572684	      0.43294161	      1.67075585	      2.89544184	      0.00000000	     38.49164591	      0.47584383	     -5.35165700	     74.53992951	      1.30096719	      5.12163145	    -10.38545747	      0.00000000
      0.02000000	     -9.97202315	      3.34636079	      2.77109033	      2.22173450	      1.04530204	      1.01308621	     -5.45830863	     -3.14029367	    -11.38549589	     23.09726848	      0.40312338	     -2.69771984	      2.77776813	      0.00000000	     39.49991637	      1.37559885	     -5.92281460	     70.87316395	      1.23697006	      5.49789779	    -10.36927125	      0.00000000
      0.02666667	    -10.57521904	      3.84669944	      3.12666304	      2.22335253	      1.04848133	      1.01249065	     -6.77320467	     -3.61619230	    -11.54670301	     21.77491426	      0.38004395	     -7.05334697	      2.70114663	      0.00000000	     40.50056981	      2.27601901	     -6.56502135	     66.99152905	      1.16922275	      5.89390993	     -9.97913585	      0.00000000
      0.03333333	    -10.99657963	      4.28250303	      3.42009704	      2.22518203	      1.05184093	      1.01196180	     -8.31577936	     -3.85241058	    -11.02357315	     20.28370493	      0.35401744	    -11.17351598	      1.88050732	      0.00000000	     41.10276884	      3.03761053	     -7.26339369	     62.88504866	      1.09755115	      6.33391014	     -9.38885578	      0.00000000
      0.04000000	    -11.74918102	      4.69893453	      3.70890555	      2.22668822	      1.05448939	      1.01128020	     -9.06262621	     -4.33039310	    -11.12671731	     19.68908021	      0.34363928	    -14.75486858	      1.92494558	      0.00000000	     41.95080586	      3.82261434	     -7.95128202	     58.64104337	      1.02347928	      6.74082561	     -8.40400671	      0.00000000
      0.04666667	    -12.18564783	      5.06899489	      3.97993255	      2.22835439	      1.05740773	      1.01071037	    -10.11596169	     -4.64028285	    -10.86559106	     19.11501067	      0.33361987	    -18.00429517	      1.40436796	      0.00000000	     42.29083305	      4.48919012	     -8.71069762	     54.22415379	      0.94639002	      7.22617020	     -6.97912551	      0.00000000
      0.05333333	    -12.81403475	      5.32579398	      4.25521371	      2.22975044	      1.05973405	      1.01004910	    -10.62893969	     -4.94020060	    -10.75715682	     19.21411263	      0.33534953	    -20.63024330	      1.08677160	      0.00000000	     42.75356514	      5.07538775	     -9.45350443	     49.74625559	      0.86823595	      7.69681210	     -5.17495461	      0.00000000
      0.06000000	    -13.33606551	      5.51514706	      4.51940111	      2.23109436	      1.06182913	      1.00943273	    -11.06716862	     -5.15683909	    -10.56852216	     19.70559000	      0.34392743	    -22.61967108	      0.74450369	      0.00000000	     43.00332092	      5.55512839	    -10.30659086	     45.23868027	      0.78956392	      8.30002876	     -2.69076472	      0.00000000
      0.06666667	    -13.97706187	      5.56911084	      4.89550994	      2.23214626	      1.06328609	      1.00859440	    -11.11621783	     -5.29304253	    -10.63692675	     20.76692037	      0.36245114	    -23.91080754	      0.47425593	      0.00000000	     43.33361246	      6.08908439	    -10.89333724	     40.75158510	      0.71124934	      8.78304606	     -0.35834676	      0.00000000
      0.07333333	    -14.44723198	      5.52705696	      5.21224349	      2.23320559	      1.06436311	      1.00790312	    -11.16139607	     -5.33892056	    -10.71342729	     22.22813419	      0.38795413	    -24.44560528	      0.52814963	      0.00000000	     43.45863002	      6.39763691	    -11.78843425	     36.48382091	      0.63676280	      9.59761479	      3.09801030	      0.00000000
      0.08000000	    -14.95407941	      5.44772586	      5.61693757	      2.23396706	      1.06489651	      1.00697797	    -10.98141568	     -5.35299758	    -10.84999547	     24.09622723	      0.42055850	    -24.54875809	      0.21361148	      0.00000000	     43.56116874	      6.96838851	    -12.07114073	     32.21567372	      0.56226958	     10.08399737	      5.59473280	      0.00000000
      0.08666667	    -15.35841492	      5.28562620	      6.01996953	      2.23462341	      1.06491843	      1.00603951	    -10.72576703	     -5.37454964	    -11.33338212	     26.35534316	      0.45998751	    -24.12691760	      0.57236525	      0.00000000	     43.57943520	      7.43624199	    -12.37995218	     28.28795392	      0.49371793	     10.75914226	      8.52026651	      0.00000000
      0.09333333	    -15.72632709	      5.06318921	      6.45732725	      2.23507626	      1.06447151	      1.00503545	    -10.39205241	     -5.28720909	    -11.65558910	     28.80249973	      0.50269845	    -23.70754187	      0.21418874	      0.00000000	     43.52920232	      8.02180338	    -12.04209789	     24.53976260	      0.42829965	     11.24582137	     10.54941221	      0.00000000
      0.10000000	    -15.96643194	      4.92639439	      6.80711179	      2.23541697	      1.06363219	      1.00410813	    -10.01005150	     -5.48579007	    -12.42183614	     31.63475390	      0.55213061	    -23.07974920	      0.61618422	      0.00000000	     43.29620105	      8.66384063	    -11.38499646	     21.03277445	      0.36709117	     11.50324555	     11.86264149	      0.00000000
      0.10666667	    -16.09832544	      4.73392415	      7.32047238	      2.23553835	      1.06255167	      1.00304554	     -9.67421694	     -5.57072881	    -13.21766025	     34.55375046	      0.60307671	    -22.57112035	      0.71575769	      0.00000000	     42.76671434	      9.52363148	     -9.41444114	     17.50724152	      0.30555901	     11.53120994	     11.51830943	      0.00000000
      0.11333333	    -16.05714573	      4.55710103	      7.71508293	      2.23565712	      1.06114761	      1.00225830	     -9.40722565	     -5.71212307	    -13.93749028	     37.59472908	      0.65615180	    -22.20940575	      0.62670988	      0.00000000	     42.06780949	     10.15708640	     -7.50570346	     14.48492627	      0.25280966	     11.39737408	     10.93310374	      0.00000000
      0.12000000	    -15.88793729	      4.22704804	      8.09678855	      2.23564099	      1.05926792	      1.00162850	     -9.15696295	     -5.63316209	    -14.45208517	     40.67480896	      0.70990934	    -22.04682877	      0.01096953	      0.00000000	     41.63479668	     10.30794075	     -6.73814518	     12.74305744	      0.22240831	     11.84320847	     11.83552745	      0.00000000
      0.12666667	    -15.44550274	      4.22230432	      8.44812683	      2.23559184	      1.05742551	      1.00109824	     -9.13463616	     -6.06140738	    -15.34465617	     43.94018133	      0.76690084	    -21.82087706	      0.14401350	      0.00000000	     40.53913290	     10.84192441	     -4.68620931	     10.70401976	      0.18682039	     11.21944324	      9.98931322	      0.00000000
      0.13333333	    -14.77898223	      3.76729099	      8.78591033	      2.23520925	      1.05532045	      1.00075950	     -9.19806341	     -5.76389071	    -15.67252319	     47.00933096	      0.82046760	    -22.17059700	     -0.46228363	      0.00000000	     39.97265238	     10.59870251	     -4.31844482	     10.56394262	      0.18437558	     11.28294658	     10.27361896	      0.00000000
      0.14000000	    -14.34479202	      3.88161555	      9.14211161	      2.23474695	      1.05235984	      1.00042291	     -8.92892591	     -6.30926992	    -16.28858160	     50.48363082	      0.88110558	    -21.75479554	     -1.53928866	      0.00000000	     39.60155730	     10.83355346	     -4.25937180	     10.83565866	      0.18911792	     11.25878756	     10.13247260	      0.00000000
      0.14666667	    -13.80780814	      3.74114062	      9.45901808	      2.23397821	      1.04904701	      1.00029766	     -8.60745943	     -6.51783446	    -16.66900607	     53.90170983	      0.94076231	    -21.54845353	     -2.20205423	      0.00000000	     39.58546219	     10.63209281	     -4.87465512	     12.37371138	      0.21596200	     11.22512747	     10.40326612	      0.00000000
